<?xml version="1.0" encoding="UTF-8"?>
<svg id="Layer_2" data-name="Layer 2" xmlns="http://www.w3.org/2000/svg" viewBox="0 0 675.35 475.13">
  <defs>
    <style>
      .cls-1 {
        fill: #f3fdb8;
        stroke-width: 0px;
      }
    </style>
  </defs>
  <g id="Layer_7" data-name="Layer 7">
    <g>
      <path class="cls-1" d="m428.76,409.84c106.98,0,185.46-70.86,185.46-172.27,0-100.72-78.47-171.58-185.46-171.58s-185.48,70.86-185.48,172.27c0,101.42,78.5,171.58,185.48,171.58m0-409.84c142.39,0,246.59,110.45,246.59,237.57,0,127.12-104.19,237.56-246.59,237.56-142.41,0-246.6-109.75-246.6-236.87C182.17,110.45,286.36,0,428.76,0"/>
      <path class="cls-1" d="m246.6,409.84c106.98,0,185.46-70.86,185.46-172.27,0-100.72-78.47-171.58-185.46-171.58-106.98,0-185.48,70.86-185.48,172.27,0,101.42,78.5,171.58,185.48,171.58M246.6,0c142.39,0,246.59,110.45,246.59,237.57,0,127.12-104.19,237.56-246.59,237.56C104.19,475.13,0,365.38,0,238.26,0,110.45,104.19,0,246.6,0"/>
      <path class="cls-1" d="m337.67,195.89c23.62,0,41.67,18.76,41.67,41.68,0,22.93-18.06,41.67-41.67,41.67-22.93,0-41.68-18.75-41.68-41.67,0-22.93,18.76-41.68,41.68-41.68"/>
    </g>
  </g>
</svg>