<?xml version="1.0" encoding="UTF-8"?>
<svg id="Layer_2" data-name="Layer 2" xmlns="http://www.w3.org/2000/svg" viewBox="0 0 657.61 567.72">
  <defs>
    <style>
      .cls-1 {
        fill: #060f16;
        stroke-width: 0px;
      }
    </style>
  </defs>
  <g id="Layer_7" data-name="Layer 7">
    <g>
      <path class="cls-1" d="m489.5,396.81c96.1-49.02,134.12-148.62,87.66-239.72-46.15-90.48-149.11-118.17-245.2-69.15-96.1,49.02-134.14,148.63-87.68,239.73,46.47,91.11,149.13,118.16,245.23,69.14M301.72,28.66c127.91-65.24,272.11-13.77,330.35,100.42,58.24,114.19,15.25,261.13-112.66,326.37-127.92,65.25-271.8,14.4-330.04-99.79-58.56-114.81-15.57-261.76,112.35-327.01"/>
      <path class="cls-1" d="m325.87,480.27c96.1-49.02,134.12-148.62,87.66-239.72-46.15-90.48-149.11-118.17-245.2-69.15-96.1,49.02-134.14,148.63-87.68,239.73,46.47,91.11,149.13,118.16,245.23,69.14M138.09,112.13c127.91-65.24,272.11-13.77,330.35,100.42,58.24,114.19,15.25,261.13-112.66,326.37-127.92,65.25-271.8,14.4-330.04-99.79-58.56-114.81-15.57-261.76,112.35-327.01"/>
      <path class="cls-1" d="m309.65,246.36c21.21-10.82,46.03-2.24,56.53,18.35,10.5,20.59,2.87,45.71-18.34,56.53-20.59,10.5-46.03,2.26-56.54-18.33-10.5-20.59-2.25-46.04,18.34-56.54"/>
    </g>
  </g>
</svg>