<?xml version="1.0" encoding="UTF-8"?>
<svg id="Layer_2" data-name="Layer 2" xmlns="http://www.w3.org/2000/svg" viewBox="0 0 296.66 61.92">
  <defs>
    <style>
      .cls-1 {
        fill: #060f16;
        stroke-width: 0px;
      }
    </style>
  </defs>
  <g id="Layer_7" data-name="Layer 7">
    <g>
      <g>
        <path class="cls-1" d="m91.93,28.91c0-9.16-6.07-15.88-14.75-15.88s-14.69,6.72-14.69,15.88,6.07,15.88,14.75,15.88,14.69-6.72,14.69-15.88m-35.09,0c0-12.19,9.46-21.11,20.34-21.11s20.34,8.92,20.34,21.11-9.4,21.11-20.28,21.11-20.4-8.92-20.4-21.11"/>
        <path class="cls-1" d="m127.75,34.86c0-6.42-4.46-10.29-8.92-10.29-3.92,0-8.56,2.97-8.56,10.29s4.64,10.29,8.56,10.29c4.46,0,8.92-3.86,8.92-10.29m5.23,0c0,8.8-6.19,15.17-13.74,15.17-4.16,0-7.08-1.96-8.98-4.76v16.36h-5.06V19.99h3.45l1.13,3.75h.95c1.9-2.44,4.7-4.05,8.5-4.05,7.55,0,13.74,6.36,13.74,15.17"/>
        <path class="cls-1" d="m144.23,31.89h16.83c-.71-4.58-3.69-7.79-8.15-7.79s-7.73,3.03-8.68,7.79m22.24,4.34h-22.48c.48,5.53,3.93,8.98,9.04,8.98,3.39,0,5.89-1.49,7.32-3.81h5.47c-2.26,5.41-7.37,8.62-12.79,8.62-7.49,0-14.15-6.13-14.15-15.4s6.66-14.93,14.1-14.93,14.09,5.29,13.5,16.53"/>
        <path class="cls-1" d="m198.65,33.61v16.12h-5.23v-14.33c0-5.29-.89-11.18-6.78-11.18-4.46,0-8.03,3.33-8.03,8.56v16.95h-5.23v-29.74h3.45l1.07,3.39h.71c1.13-1.31,3.81-3.69,8.74-3.69,7.55,0,11.3,5.65,11.3,13.92"/>
      </g>
      <polygon class="cls-1" points="233.33 44.49 233.33 49.73 206.51 49.73 206.51 13.27 206.51 8.1 232.74 8.1 232.74 13.27 212.04 13.27 212.04 26.06 230.95 26.06 230.95 31.23 212.04 31.23 212.04 44.49 233.33 44.49"/>
      <g>
        <path class="cls-1" d="m266.23,19.99l-10.94,30.87c-1.49,4.4-3.33,11.06-10.59,11.06-2.79,0-5.29-1.01-6.13-2.02l2.32-3.63c.42.3,1.72,1.13,3.57,1.13,3.15,0,3.99-2.5,5-5.23l.89-2.44h-2.44l-10.82-29.74h5.41l8.98,24.62h.65l8.74-24.62h5.35Z"/>
        <path class="cls-1" d="m274.38,31.89h16.83c-.71-4.58-3.69-7.79-8.15-7.79s-7.73,3.03-8.68,7.79m22.24,4.34h-22.48c.48,5.53,3.93,8.98,9.04,8.98,3.39,0,5.89-1.49,7.32-3.81h5.47c-2.26,5.41-7.37,8.62-12.79,8.62-7.49,0-14.15-6.13-14.15-15.4s6.66-14.93,14.1-14.93,14.1,5.29,13.5,16.53"/>
        <path class="cls-1" d="m35.09,21.11c0-9.16-6.07-15.88-14.75-15.88s-14.69,6.72-14.69,15.88,6.07,15.88,14.75,15.88,14.69-6.72,14.69-15.88M0,21.11C0,8.92,9.46,0,20.34,0s20.34,8.92,20.34,21.11-9.4,21.11-20.28,21.11S0,33.31,0,21.11"/>
        <path class="cls-1" d="m35.09,36.71c0-9.16-6.07-15.88-14.75-15.88s-14.69,6.72-14.69,15.88,6.07,15.88,14.75,15.88,14.69-6.72,14.69-15.88m-35.09,0C0,24.52,9.46,15.6,20.34,15.6s20.34,8.92,20.34,21.11-9.4,21.11-20.28,21.11S0,48.9,0,36.71"/>
        <path class="cls-1" d="m16.77,28.91c0-2.02,1.61-3.57,3.57-3.57s3.57,1.55,3.57,3.57-1.6,3.57-3.57,3.57-3.57-1.61-3.57-3.57"/>
      </g>
    </g>
  </g>
</svg>