<?xml version="1.0" encoding="UTF-8"?>
<svg id="Layer_2" data-name="Layer 2" xmlns="http://www.w3.org/2000/svg" viewBox="0 0 886.34 800.22">
  <defs>
    <style>
      .cls-1 {
        fill: #07f;
        stroke-width: 0px;
      }
    </style>
  </defs>
  <g id="Layer_7" data-name="Layer 7">
    <g>
      <path class="cls-1" d="m421.01,668.07c124.32,79.61,268.24,55.66,343.71-62.19,74.95-117.05,36.49-257.79-87.84-337.39-124.32-79.61-268.27-55.68-343.73,62.17-75.47,117.86-36.46,257.8,87.86,337.41m304.97-476.27c165.47,105.96,204.36,311.85,109.77,459.57-94.59,147.72-297.85,198.53-463.33,92.57-165.49-105.97-204.9-311.04-110.3-458.76,95.11-148.52,298.37-199.34,463.86-93.37"/>
      <path class="cls-1" d="m209.32,532.51c124.32,79.61,268.24,55.66,343.71-62.19,74.95-117.05,36.49-257.79-87.84-337.39-124.32-79.61-268.27-55.68-343.73,62.17-75.47,117.86-36.46,257.8,87.86,337.41M514.29,56.25c165.47,105.96,204.36,311.85,109.77,459.57-94.59,147.72-297.85,198.53-463.33,92.57C-4.75,502.41-44.16,297.34,50.43,149.62,145.54,1.1,348.81-49.72,514.29,56.25"/>
      <path class="cls-1" d="m474.37,351.65c27.44,17.57,34.47,52.81,17.41,79.45-17.06,26.64-51.99,34.99-79.44,17.42-26.64-17.06-34.49-52.8-17.43-79.44,17.06-26.64,52.82-34.48,79.46-17.42"/>
    </g>
  </g>
</svg>