<?xml version="1.0" encoding="UTF-8"?>
<svg id="Layer_2" data-name="Layer 2" xmlns="http://www.w3.org/2000/svg" viewBox="0 0 711.41 925">
  <defs>
    <style>
      .cls-1 {
        fill: #eeedec;
        stroke-width: 0px;
      }
    </style>
  </defs>
  <g id="Layer_7" data-name="Layer 7">
    <g>
      <path class="cls-1" d="m560.97,288.88c-31.62-144.2-150.32-229.03-287.01-199.06-135.76,29.77-208.08,156.48-176.46,300.68,31.62,144.2,150.33,229.07,287.02,199.09,136.71-29.97,208.07-156.51,176.46-300.71M8.55,410C-33.53,218.07,84.55,44.99,255.9,7.42c171.34-37.57,350.99,70.23,393.08,262.16,42.09,191.95-75.05,364.82-246.4,402.39C230.31,709.75,50.64,601.95,8.55,410"/>
      <path class="cls-1" d="m614.81,534.42c-31.62-144.2-150.32-229.03-287.01-199.06-135.76,29.77-208.08,156.48-176.46,300.68,31.62,144.2,150.33,229.07,287.02,199.09,136.71-29.97,208.07-156.51,176.46-300.71M62.39,655.54c-42.08-191.93,76-365.01,247.34-402.58,171.34-37.57,350.99,70.23,393.08,262.16,42.09,191.95-75.05,364.82-246.4,402.39-172.27,37.77-351.94-70.03-394.02-261.97"/>
      <path class="cls-1" d="m299.51,474.89c-6.98-31.83,12.97-61.71,43.87-68.49,30.9-6.78,61.51,12.02,68.48,43.85s-12.95,61.72-43.85,68.5c-30.9,6.78-61.73-12.96-68.5-43.87"/>
    </g>
  </g>
</svg>